<?xml version="1.0" standalone="no"?><svg xmlns="http://www.w3.org/2000/svg" viewBox="0 0 1440 320"><path fill="#5964D9" fill-opacity="1" d="M0,192L24,202.7C48,213,96,235,144,218.7C192,203,240,149,288,106.7C336,64,384,32,432,42.7C480,53,528,107,576,117.3C624,128,672,96,720,112C768,128,816,192,864,218.7C912,245,960,235,1008,213.3C1056,192,1104,160,1152,138.7C1200,117,1248,107,1296,133.3C1344,160,1392,224,1416,256L1440,288L1440,320L1416,320C1392,320,1344,320,1296,320C1248,320,1200,320,1152,320C1104,320,1056,320,1008,320C960,320,912,320,864,320C816,320,768,320,720,320C672,320,624,320,576,320C528,320,480,320,432,320C384,320,336,320,288,320C240,320,192,320,144,320C96,320,48,320,24,320L0,320Z"></path></svg>